<svg width="22" height="16" viewBox="0 0 22 16" fill="none" xmlns="http://www.w3.org/2000/svg">
<path d="M19.7727 13.3333C19.7727 13.687 19.6338 14.0261 19.3866 14.2761C19.1394 14.5262 18.8041 14.6667 18.4545 14.6667H2.63636C2.28676 14.6667 1.95148 14.5262 1.70427 14.2761C1.45706 14.0261 1.31818 13.687 1.31818 13.3333V5.33333C1.31818 4.97971 1.45706 4.64057 1.70427 4.39052C1.95148 4.14048 2.28676 4 2.63636 4H4.18127C5.22954 3.99942 6.23469 3.57787 6.97582 2.828L8.06991 1.724C8.31641 1.47459 8.65057 1.33411 8.99923 1.33333H12.089C12.4386 1.33341 12.7739 1.47393 13.021 1.724L14.1125 2.828C14.4797 3.19962 14.9158 3.4944 15.3958 3.69549C15.8757 3.89659 16.3901 4.00006 16.9096 4H18.4545C18.8041 4 19.1394 4.14048 19.3866 4.39052C19.6338 4.64057 19.7727 4.97971 19.7727 5.33333V13.3333ZM2.63636 2.66667C1.93716 2.66667 1.26659 2.94762 0.772173 3.44772C0.277759 3.94781 0 4.62609 0 5.33333L0 13.3333C0 14.0406 0.277759 14.7189 0.772173 15.219C1.26659 15.719 1.93716 16 2.63636 16H18.4545C19.1538 16 19.8243 15.719 20.3187 15.219C20.8132 14.7189 21.0909 14.0406 21.0909 13.3333V5.33333C21.0909 4.62609 20.8132 3.94781 20.3187 3.44772C19.8243 2.94762 19.1538 2.66667 18.4545 2.66667H16.9096C16.2105 2.66652 15.54 2.38547 15.0457 1.88533L13.9543 0.781333C13.46 0.281202 12.7895 0.000151033 12.0904 0H9.00055C8.3014 0.000151033 7.63094 0.281202 7.13664 0.781333L6.04518 1.88533C5.55088 2.38547 4.88042 2.66652 4.18127 2.66667H2.63636Z" fill="#191414"/>
</svg>
